<?xml version="1.0" encoding="iso-8859-1"?>
<!-- Generator: Adobe Illustrator 25.4.1, SVG Export Plug-In . SVG Version: 6.00 Build 0)  -->
<svg version="1.1" id="Layer_1" xmlns="http://www.w3.org/2000/svg" xmlns:xlink="http://www.w3.org/1999/xlink" x="0px" y="0px"
	 viewBox="0 0 100 100" style="enable-background:new 0 0 100 100;" xml:space="preserve">
<g id="Layer_2_00000043431235924289622600000009054566064011990421_">
</g>
<g id="Layer_1_00000116227886711141955650000017359545764536328383_">
	<g>
		<path style="fill:#F49073;" d="M92.787,16L50,26.999L7,16l19,33l10,2.736V65l14,24.34L64,65l-0.128-13.264L74,49L92.787,16z
			 M57,46.128v16.468l-7.107,12.766L43,63V46l-11-3l-8.5-14.489L50,34.894L77,28l-9,15L57,46.128z"/>
	</g>
	<g>
		<g>
			<path style="fill:#1F212B;" d="M50,91c-0.362,0-0.696-0.195-0.873-0.512l-14-25C35.044,65.339,35,65.171,35,65V52.744
				l-9.287-2.786c-0.245-0.073-0.452-0.237-0.58-0.459l-19-33c-0.201-0.349-0.173-0.783,0.07-1.104
				c0.244-0.321,0.655-0.466,1.044-0.364L50,25.968l42.752-10.937c0.39-0.102,0.801,0.043,1.044,0.364
				c0.243,0.32,0.271,0.755,0.07,1.104l-19,33c-0.127,0.222-0.335,0.386-0.58,0.459L65,52.744V65c0,0.171-0.044,0.339-0.127,0.488
				l-14,25C50.696,90.805,50.362,91,50,91z M37,64.739l13,23.214l13-23.214V52c0-0.441,0.29-0.831,0.713-0.958l9.619-2.886
				l17.618-30.6L50.248,27.969c-0.163,0.041-0.333,0.041-0.496,0L9.05,17.557l17.618,30.6l9.619,2.886C36.71,51.169,37,51.559,37,52
				V64.739z"/>
		</g>
	</g>
	<g>
		<g>
			<path style="fill:#1F212B;" d="M50,77c-0.368,0-0.706-0.202-0.88-0.526l-7-13C42.041,63.328,42,63.165,42,63V46.764
				l-10.263-2.799c-0.249-0.068-0.461-0.229-0.594-0.45l-9-15c-0.209-0.349-0.187-0.788,0.057-1.113
				c0.243-0.326,0.657-0.473,1.052-0.369L50,33.967l26.749-6.935c0.393-0.104,0.809,0.043,1.052,0.369
				c0.243,0.325,0.266,0.765,0.057,1.113l-9,15c-0.133,0.221-0.346,0.382-0.594,0.45L58,46.764V63c0,0.165-0.041,0.328-0.12,0.474
				l-7,13C50.706,76.798,50.368,77,50,77z M44,62.748l6,11.143l6-11.143V46c0-0.451,0.302-0.846,0.737-0.965l10.612-2.895
				l7.536-12.56l-24.634,6.387c-0.165,0.043-0.337,0.043-0.502,0L25.115,29.58l7.536,12.56l10.612,2.895
				C43.698,45.154,44,45.549,44,46V62.748z"/>
		</g>
	</g>
	<g>
		<g>
			<path style="fill:#1F212B;" d="M32.5,27c-0.038,0-0.077-0.004-0.115-0.014l-9.931-2.337c-0.269-0.062-0.435-0.332-0.372-0.601
				c0.063-0.27,0.333-0.441,0.602-0.372l9.931,2.337c0.269,0.062,0.435,0.332,0.372,0.601C32.933,26.845,32.727,27,32.5,27z"/>
		</g>
	</g>
	<g>
		<g>
			<path style="fill:#1F212B;" d="M23,35.5c-0.17,0-0.335-0.087-0.429-0.243l-5.064-8.439c-0.526-0.877-0.478-1.935,0.125-2.761
				c0.603-0.824,1.595-1.193,2.592-0.958c0.269,0.062,0.435,0.332,0.372,0.601s-0.335,0.438-0.602,0.372
				c-0.71-0.17-1.271,0.187-1.555,0.575s-0.453,1.027-0.075,1.657l5.064,8.439c0.142,0.236,0.065,0.544-0.171,0.686
				C23.177,35.478,23.088,35.5,23,35.5z"/>
		</g>
	</g>
	<g>
		<g>
			<path style="fill:#1F212B;" d="M52.243,79.094c-0.087,0-0.176-0.022-0.257-0.071c-0.237-0.142-0.313-0.449-0.171-0.686
				l4.256-7.094c0.142-0.236,0.449-0.316,0.686-0.172c0.237,0.142,0.313,0.449,0.171,0.686l-4.256,7.094
				C52.579,79.007,52.413,79.094,52.243,79.094z"/>
		</g>
	</g>
</g>
</svg>